<mxfile host="Electron" agent="Mozilla/5.0 (Windows NT 10.0; Win64; x64) AppleWebKit/537.36 (KHTML, like Gecko) draw.io/26.2.15 Chrome/134.0.6998.205 Electron/35.2.1 Safari/537.36" version="26.2.15">
  <diagram name="Page-1" id="OTyQowUpZu3w2dGypzag">
    <mxGraphModel dx="2562" dy="1320" grid="1" gridSize="10" guides="1" tooltips="1" connect="1" arrows="1" fold="1" page="1" pageScale="1" pageWidth="850" pageHeight="1100" math="0" shadow="0">
      <root>
        <mxCell id="0" />
        <mxCell id="1" parent="0" />
        <mxCell id="1cOycNBSY7dRPkyLN_TB-2" value="DashBoardSceren" style="shape=umlLifeline;perimeter=lifelinePerimeter;whiteSpace=wrap;html=1;container=1;dropTarget=0;collapsible=0;recursiveResize=0;outlineConnect=0;portConstraint=eastwest;newEdgeStyle={&quot;curved&quot;:0,&quot;rounded&quot;:0};labelBackgroundColor=none;fillColor=#A8DADC;strokeColor=#457B9D;fontColor=#1D3557;" parent="1" vertex="1">
          <mxGeometry x="50" width="110" height="1330" as="geometry" />
        </mxCell>
        <mxCell id="1cOycNBSY7dRPkyLN_TB-24" value="" style="html=1;points=[[0,0,0,0,5],[0,1,0,0,-5],[1,0,0,0,5],[1,1,0,0,-5]];perimeter=orthogonalPerimeter;outlineConnect=0;targetShapes=umlLifeline;portConstraint=eastwest;newEdgeStyle={&quot;curved&quot;:0,&quot;rounded&quot;:0};labelBackgroundColor=none;fillColor=#A8DADC;strokeColor=#457B9D;fontColor=#1D3557;" parent="1cOycNBSY7dRPkyLN_TB-2" vertex="1">
          <mxGeometry x="47.5" y="80" width="15" height="80" as="geometry" />
        </mxCell>
        <mxCell id="1cOycNBSY7dRPkyLN_TB-3" value="" style="shape=umlLifeline;perimeter=lifelinePerimeter;whiteSpace=wrap;html=1;container=1;dropTarget=0;collapsible=0;recursiveResize=0;outlineConnect=0;portConstraint=eastwest;newEdgeStyle={&quot;curved&quot;:0,&quot;rounded&quot;:0};participant=umlActor;labelBackgroundColor=none;fillColor=#A8DADC;strokeColor=#457B9D;fontColor=#1D3557;" parent="1" vertex="1">
          <mxGeometry x="10" width="20" height="1300" as="geometry" />
        </mxCell>
        <mxCell id="1cOycNBSY7dRPkyLN_TB-4" value="DSManager" style="shape=umlLifeline;perimeter=lifelinePerimeter;whiteSpace=wrap;html=1;container=1;dropTarget=0;collapsible=0;recursiveResize=0;outlineConnect=0;portConstraint=eastwest;newEdgeStyle={&quot;curved&quot;:0,&quot;rounded&quot;:0};labelBackgroundColor=none;fillColor=#A8DADC;strokeColor=#457B9D;fontColor=#1D3557;" parent="1" vertex="1">
          <mxGeometry x="1275" width="100" height="1320" as="geometry" />
        </mxCell>
        <mxCell id="1cOycNBSY7dRPkyLN_TB-5" value="" style="html=1;points=[[0,0,0,0,5],[0,1,0,0,-5],[1,0,0,0,5],[1,1,0,0,-5]];perimeter=orthogonalPerimeter;outlineConnect=0;targetShapes=umlLifeline;portConstraint=eastwest;newEdgeStyle={&quot;curved&quot;:0,&quot;rounded&quot;:0};labelBackgroundColor=none;fillColor=#A8DADC;strokeColor=#457B9D;fontColor=#1D3557;" parent="1cOycNBSY7dRPkyLN_TB-4" vertex="1">
          <mxGeometry x="42.5" y="170" width="15" height="40" as="geometry" />
        </mxCell>
        <mxCell id="vjh0ZyolPzS9bqaiy3-8-3" value="" style="html=1;points=[[0,0,0,0,5],[0,1,0,0,-5],[1,0,0,0,5],[1,1,0,0,-5]];perimeter=orthogonalPerimeter;outlineConnect=0;targetShapes=umlLifeline;portConstraint=eastwest;newEdgeStyle={&quot;curved&quot;:0,&quot;rounded&quot;:0};labelBackgroundColor=none;fillColor=#A8DADC;strokeColor=#457B9D;fontColor=#1D3557;" parent="1cOycNBSY7dRPkyLN_TB-4" vertex="1">
          <mxGeometry x="42.5" y="440" width="15" height="40" as="geometry" />
        </mxCell>
        <mxCell id="vjh0ZyolPzS9bqaiy3-8-13" value="" style="html=1;points=[[0,0,0,0,5],[0,1,0,0,-5],[1,0,0,0,5],[1,1,0,0,-5]];perimeter=orthogonalPerimeter;outlineConnect=0;targetShapes=umlLifeline;portConstraint=eastwest;newEdgeStyle={&quot;curved&quot;:0,&quot;rounded&quot;:0};labelBackgroundColor=none;fillColor=#A8DADC;strokeColor=#457B9D;fontColor=#1D3557;" parent="1cOycNBSY7dRPkyLN_TB-4" vertex="1">
          <mxGeometry x="42.5" y="700" width="15" height="40" as="geometry" />
        </mxCell>
        <mxCell id="1cOycNBSY7dRPkyLN_TB-9" value="ManageSearchClass" style="shape=umlLifeline;perimeter=lifelinePerimeter;whiteSpace=wrap;html=1;container=1;dropTarget=0;collapsible=0;recursiveResize=0;outlineConnect=0;portConstraint=eastwest;newEdgeStyle={&quot;curved&quot;:0,&quot;rounded&quot;:0};labelBackgroundColor=none;fillColor=#A8DADC;strokeColor=#457B9D;fontColor=#1D3557;" parent="1" vertex="1">
          <mxGeometry x="180" width="130" height="1340" as="geometry" />
        </mxCell>
        <mxCell id="1cOycNBSY7dRPkyLN_TB-10" value="" style="html=1;points=[[0,0,0,0,5],[0,1,0,0,-5],[1,0,0,0,5],[1,1,0,0,-5]];perimeter=orthogonalPerimeter;outlineConnect=0;targetShapes=umlLifeline;portConstraint=eastwest;newEdgeStyle={&quot;curved&quot;:0,&quot;rounded&quot;:0};labelBackgroundColor=none;fillColor=#A8DADC;strokeColor=#457B9D;fontColor=#1D3557;fontStyle=1" parent="1cOycNBSY7dRPkyLN_TB-9" vertex="1">
          <mxGeometry x="57.5" y="70" width="15" height="320" as="geometry" />
        </mxCell>
        <mxCell id="1cOycNBSY7dRPkyLN_TB-11" value="ManageCreatioClass" style="shape=umlLifeline;perimeter=lifelinePerimeter;whiteSpace=wrap;html=1;container=1;dropTarget=0;collapsible=0;recursiveResize=0;outlineConnect=0;portConstraint=eastwest;newEdgeStyle={&quot;curved&quot;:0,&quot;rounded&quot;:0};strokeColor=#457B9D;fontColor=#1D3557;fillColor=#A8DADC;" parent="1" vertex="1">
          <mxGeometry x="460" y="390" width="150" height="970" as="geometry" />
        </mxCell>
        <mxCell id="1cOycNBSY7dRPkyLN_TB-12" value="" style="html=1;points=[[0,0,0,0,5],[0,1,0,0,-5],[1,0,0,0,5],[1,1,0,0,-5]];perimeter=orthogonalPerimeter;outlineConnect=0;targetShapes=umlLifeline;portConstraint=eastwest;newEdgeStyle={&quot;curved&quot;:0,&quot;rounded&quot;:0};labelBackgroundColor=none;fillColor=#A8DADC;strokeColor=#457B9D;fontColor=#1D3557;" parent="1cOycNBSY7dRPkyLN_TB-11" vertex="1">
          <mxGeometry x="67.5" y="50" width="15" height="560" as="geometry" />
        </mxCell>
        <mxCell id="vjh0ZyolPzS9bqaiy3-8-18" value="" style="html=1;points=[[0,0,0,0,5],[0,1,0,0,-5],[1,0,0,0,5],[1,1,0,0,-5]];perimeter=orthogonalPerimeter;outlineConnect=0;targetShapes=umlLifeline;portConstraint=eastwest;newEdgeStyle={&quot;curved&quot;:0,&quot;rounded&quot;:0};labelBackgroundColor=none;fillColor=#A8DADC;strokeColor=#457B9D;fontColor=#1D3557;" parent="1cOycNBSY7dRPkyLN_TB-11" vertex="1">
          <mxGeometry x="67.5" y="720" width="15" height="120" as="geometry" />
        </mxCell>
        <mxCell id="1cOycNBSY7dRPkyLN_TB-15" value="MylistingsScreen" style="shape=umlLifeline;perimeter=lifelinePerimeter;whiteSpace=wrap;html=1;container=1;dropTarget=0;collapsible=0;recursiveResize=0;outlineConnect=0;portConstraint=eastwest;newEdgeStyle={&quot;curved&quot;:0,&quot;rounded&quot;:0};strokeColor=#457B9D;fontColor=#1D3557;fillColor=#A8DADC;" parent="1" vertex="1">
          <mxGeometry x="340" width="150" height="800" as="geometry" />
        </mxCell>
        <mxCell id="1cOycNBSY7dRPkyLN_TB-16" value="" style="html=1;points=[[0,0,0,0,5],[0,1,0,0,-5],[1,0,0,0,5],[1,1,0,0,-5]];perimeter=orthogonalPerimeter;outlineConnect=0;targetShapes=umlLifeline;portConstraint=eastwest;newEdgeStyle={&quot;curved&quot;:0,&quot;rounded&quot;:0};labelBackgroundColor=none;fillColor=#A8DADC;strokeColor=#457B9D;fontColor=#1D3557;" parent="1cOycNBSY7dRPkyLN_TB-15" vertex="1">
          <mxGeometry x="67.5" y="260" width="15" height="100" as="geometry" />
        </mxCell>
        <mxCell id="1cOycNBSY7dRPkyLN_TB-19" value="AddNewListingScreen" style="shape=umlLifeline;perimeter=lifelinePerimeter;whiteSpace=wrap;html=1;container=1;dropTarget=0;collapsible=0;recursiveResize=0;outlineConnect=0;portConstraint=eastwest;newEdgeStyle={&quot;curved&quot;:0,&quot;rounded&quot;:0};strokeColor=#457B9D;fontColor=#1D3557;fillColor=#A8DADC;" parent="1" vertex="1">
          <mxGeometry x="630" y="490" width="150" height="790" as="geometry" />
        </mxCell>
        <mxCell id="1cOycNBSY7dRPkyLN_TB-20" value="" style="html=1;points=[[0,0,0,0,5],[0,1,0,0,-5],[1,0,0,0,5],[1,1,0,0,-5]];perimeter=orthogonalPerimeter;outlineConnect=0;targetShapes=umlLifeline;portConstraint=eastwest;newEdgeStyle={&quot;curved&quot;:0,&quot;rounded&quot;:0};labelBackgroundColor=none;fillColor=#A8DADC;strokeColor=#457B9D;fontColor=#1D3557;" parent="1cOycNBSY7dRPkyLN_TB-19" vertex="1">
          <mxGeometry x="67.5" y="80" width="15" height="80" as="geometry" />
        </mxCell>
        <mxCell id="1cOycNBSY7dRPkyLN_TB-21" value="ConfirmationScreen" style="shape=umlLifeline;perimeter=lifelinePerimeter;whiteSpace=wrap;html=1;container=1;dropTarget=0;collapsible=0;recursiveResize=0;outlineConnect=0;portConstraint=eastwest;newEdgeStyle={&quot;curved&quot;:0,&quot;rounded&quot;:0};strokeColor=#457B9D;fontColor=#1D3557;fillColor=#A8DADC;" parent="1" vertex="1">
          <mxGeometry x="890" y="880" width="150" height="440" as="geometry" />
        </mxCell>
        <mxCell id="1cOycNBSY7dRPkyLN_TB-22" value="" style="html=1;points=[[0,0,0,0,5],[0,1,0,0,-5],[1,0,0,0,5],[1,1,0,0,-5]];perimeter=orthogonalPerimeter;outlineConnect=0;targetShapes=umlLifeline;portConstraint=eastwest;newEdgeStyle={&quot;curved&quot;:0,&quot;rounded&quot;:0};labelBackgroundColor=none;fillColor=#A8DADC;strokeColor=#457B9D;fontColor=#1D3557;" parent="1cOycNBSY7dRPkyLN_TB-21" vertex="1">
          <mxGeometry x="67.5" y="90" width="15" height="80" as="geometry" />
        </mxCell>
        <mxCell id="1cOycNBSY7dRPkyLN_TB-25" value="" style="endArrow=open;endFill=1;endSize=12;html=1;rounded=0;labelBackgroundColor=none;fontColor=default;strokeColor=#457B9D;" parent="1" edge="1">
          <mxGeometry width="160" relative="1" as="geometry">
            <mxPoint x="237.5" y="80" as="sourcePoint" />
            <mxPoint x="112.5" y="80" as="targetPoint" />
            <Array as="points">
              <mxPoint x="199.5" y="80" />
              <mxPoint x="149.5" y="80" />
            </Array>
          </mxGeometry>
        </mxCell>
        <mxCell id="1cOycNBSY7dRPkyLN_TB-26" value="Display()" style="text;html=1;align=center;verticalAlign=middle;resizable=0;points=[];autosize=1;strokeColor=none;fillColor=none;labelBackgroundColor=none;fontColor=#1D3557;" parent="1" vertex="1">
          <mxGeometry x="140" y="50" width="70" height="30" as="geometry" />
        </mxCell>
        <mxCell id="1cOycNBSY7dRPkyLN_TB-27" value="" style="endArrow=open;endFill=1;endSize=12;html=1;rounded=0;labelBackgroundColor=none;fontColor=default;strokeColor=#457B9D;" parent="1" edge="1">
          <mxGeometry width="160" relative="1" as="geometry">
            <mxPoint x="110" y="150" as="sourcePoint" />
            <mxPoint x="240" y="150" as="targetPoint" />
            <Array as="points">
              <mxPoint x="150" y="150" />
            </Array>
          </mxGeometry>
        </mxCell>
        <mxCell id="1cOycNBSY7dRPkyLN_TB-28" value="search Listing()" style="text;html=1;align=center;verticalAlign=middle;resizable=0;points=[];autosize=1;strokeColor=none;fillColor=none;fontColor=#1D3557;labelBackgroundColor=none;" parent="1" vertex="1">
          <mxGeometry x="120" y="120" width="110" height="30" as="geometry" />
        </mxCell>
        <mxCell id="1cOycNBSY7dRPkyLN_TB-30" value="" style="endArrow=open;endFill=1;endSize=12;html=1;rounded=0;labelBackgroundColor=none;fontColor=default;strokeColor=#457B9D;" parent="1" edge="1">
          <mxGeometry width="160" relative="1" as="geometry">
            <mxPoint x="20" y="130" as="sourcePoint" />
            <mxPoint x="100" y="130" as="targetPoint" />
            <Array as="points" />
          </mxGeometry>
        </mxCell>
        <mxCell id="1cOycNBSY7dRPkyLN_TB-31" value="" style="endArrow=open;endFill=1;endSize=12;html=1;rounded=0;labelBackgroundColor=none;fontColor=default;strokeColor=#457B9D;" parent="1" edge="1">
          <mxGeometry width="160" relative="1" as="geometry">
            <mxPoint x="20" y="100" as="sourcePoint" />
            <mxPoint x="100" y="100" as="targetPoint" />
            <Array as="points" />
          </mxGeometry>
        </mxCell>
        <mxCell id="1cOycNBSY7dRPkyLN_TB-33" value="Search Listing&lt;span style=&quot;white-space: pre;&quot;&gt;&#x9;&lt;/span&gt;" style="edgeLabel;html=1;align=center;verticalAlign=middle;resizable=0;points=[];" parent="1cOycNBSY7dRPkyLN_TB-31" vertex="1" connectable="0">
          <mxGeometry x="-0.404" relative="1" as="geometry">
            <mxPoint x="11" y="-10" as="offset" />
          </mxGeometry>
        </mxCell>
        <mxCell id="1cOycNBSY7dRPkyLN_TB-32" value="startSearch()" style="text;html=1;align=center;verticalAlign=middle;resizable=0;points=[];autosize=1;strokeColor=none;fillColor=none;" parent="1" vertex="1">
          <mxGeometry x="10" y="108" width="90" height="30" as="geometry" />
        </mxCell>
        <mxCell id="1cOycNBSY7dRPkyLN_TB-34" value="" style="endArrow=open;endFill=1;endSize=12;html=1;rounded=0;labelBackgroundColor=none;fontColor=default;strokeColor=#457B9D;" parent="1" edge="1">
          <mxGeometry width="160" relative="1" as="geometry">
            <mxPoint x="250" y="170" as="sourcePoint" />
            <mxPoint x="1320" y="170" as="targetPoint" />
            <Array as="points">
              <mxPoint x="320" y="170" />
            </Array>
          </mxGeometry>
        </mxCell>
        <mxCell id="1cOycNBSY7dRPkyLN_TB-35" value="QueryListing()" style="text;html=1;align=center;verticalAlign=middle;resizable=0;points=[];autosize=1;strokeColor=none;fillColor=none;" parent="1" vertex="1">
          <mxGeometry x="710" y="138" width="100" height="30" as="geometry" />
        </mxCell>
        <mxCell id="1cOycNBSY7dRPkyLN_TB-36" value="Return Results" style="html=1;verticalAlign=bottom;endArrow=open;dashed=1;endSize=8;curved=0;rounded=0;strokeColor=#457B9D;fontColor=default;labelBackgroundColor=none;" parent="1" edge="1">
          <mxGeometry relative="1" as="geometry">
            <mxPoint x="1325" y="210" as="sourcePoint" />
            <mxPoint x="250" y="210" as="targetPoint" />
          </mxGeometry>
        </mxCell>
        <mxCell id="1cOycNBSY7dRPkyLN_TB-38" value="" style="endArrow=open;endFill=1;endSize=12;html=1;rounded=0;labelBackgroundColor=none;fontColor=default;strokeColor=#457B9D;" parent="1" edge="1">
          <mxGeometry width="160" relative="1" as="geometry">
            <mxPoint x="253" y="265" as="sourcePoint" />
            <mxPoint x="410" y="265" as="targetPoint" />
          </mxGeometry>
        </mxCell>
        <mxCell id="1cOycNBSY7dRPkyLN_TB-40" value="ShowResults()&lt;span style=&quot;color: rgba(0, 0, 0, 0); font-family: monospace; font-size: 0px; text-align: start;&quot;&gt;%3CmxGraphModel%3E%3Croot%3E%3CmxCell%20id%3D%220%22%2F%3E%3CmxCell%20id%3D%221%22%20parent%3D%220%22%2F%3E%3CmxCell%20id%3D%222%22%20value%3D%22Return_selection%22%20style%3D%22html%3D1%3BverticalAlign%3Dbottom%3BendArrow%3Dopen%3Bdashed%3D1%3BendSize%3D8%3Bcurved%3D0%3Brounded%3D0%3BstrokeColor%3D%23457B9D%3BfontColor%3Ddefault%3BlabelBackgroundColor%3Dnone%3B%22%20edge%3D%221%22%20parent%3D%221%22%3E%3CmxGeometry%20relative%3D%221%22%20as%3D%22geometry%22%3E%3CmxPoint%20x%3D%22370%22%20y%3D%22340%22%20as%3D%22sourcePoint%22%2F%3E%3CmxPoint%20x%3D%22250%22%20y%3D%22340%22%20as%3D%22targetPoint%22%2F%3E%3C%2FmxGeometry%3E%3C%2FmxCell%3E%3C%2Froot%3E%3C%2FmxGraphModel%3E&lt;/span&gt;" style="text;html=1;align=center;verticalAlign=middle;resizable=0;points=[];autosize=1;strokeColor=none;fillColor=none;" parent="1" vertex="1">
          <mxGeometry x="270" y="238" width="100" height="30" as="geometry" />
        </mxCell>
        <mxCell id="1cOycNBSY7dRPkyLN_TB-41" value="Return_selection" style="html=1;verticalAlign=bottom;endArrow=open;dashed=1;endSize=8;curved=0;rounded=0;strokeColor=#457B9D;fontColor=default;labelBackgroundColor=none;" parent="1" source="1cOycNBSY7dRPkyLN_TB-15" edge="1">
          <mxGeometry relative="1" as="geometry">
            <mxPoint x="370" y="360" as="sourcePoint" />
            <mxPoint x="250" y="360" as="targetPoint" />
          </mxGeometry>
        </mxCell>
        <mxCell id="1cOycNBSY7dRPkyLN_TB-43" value="" style="endArrow=open;endFill=1;endSize=12;html=1;rounded=0;labelBackgroundColor=none;fontColor=default;strokeColor=#457B9D;" parent="1" edge="1">
          <mxGeometry width="160" relative="1" as="geometry">
            <mxPoint x="19.32352941176464" y="300" as="sourcePoint" />
            <mxPoint x="410" y="300" as="targetPoint" />
          </mxGeometry>
        </mxCell>
        <mxCell id="1cOycNBSY7dRPkyLN_TB-45" value="Watch Results &amp;amp; SelectAdd_New_Listing()" style="text;html=1;align=center;verticalAlign=middle;resizable=0;points=[];autosize=1;strokeColor=none;fillColor=none;" parent="1" vertex="1">
          <mxGeometry x="35" y="268" width="250" height="30" as="geometry" />
        </mxCell>
        <mxCell id="1cOycNBSY7dRPkyLN_TB-46" value="Create" style="html=1;verticalAlign=bottom;endArrow=open;dashed=1;endSize=8;curved=0;rounded=0;strokeColor=#457B9D;fontColor=default;labelBackgroundColor=none;" parent="1" edge="1">
          <mxGeometry x="0.0101" relative="1" as="geometry">
            <mxPoint x="250" y="390" as="sourcePoint" />
            <mxPoint x="460" y="390" as="targetPoint" />
            <mxPoint as="offset" />
          </mxGeometry>
        </mxCell>
        <mxCell id="1cOycNBSY7dRPkyLN_TB-47" value="Create" style="html=1;verticalAlign=bottom;endArrow=open;dashed=1;endSize=8;curved=0;rounded=0;strokeColor=#457B9D;fontColor=default;labelBackgroundColor=none;" parent="1" edge="1">
          <mxGeometry x="0.0101" relative="1" as="geometry">
            <mxPoint x="540" y="490" as="sourcePoint" />
            <mxPoint x="630" y="490" as="targetPoint" />
            <mxPoint as="offset" />
          </mxGeometry>
        </mxCell>
        <mxCell id="1cOycNBSY7dRPkyLN_TB-48" value="" style="endArrow=open;endFill=1;endSize=12;html=1;rounded=0;labelBackgroundColor=none;fontColor=default;strokeColor=#457B9D;entryX=0;entryY=0;entryDx=0;entryDy=5;entryPerimeter=0;" parent="1" edge="1">
          <mxGeometry width="160" relative="1" as="geometry">
            <mxPoint x="19.547619047619264" y="600" as="sourcePoint" />
            <mxPoint x="697.5" y="600" as="targetPoint" />
            <Array as="points">
              <mxPoint x="620" y="600" />
            </Array>
          </mxGeometry>
        </mxCell>
        <mxCell id="1cOycNBSY7dRPkyLN_TB-49" value="provide Listing details &amp;amp; submit()" style="text;html=1;align=center;verticalAlign=middle;resizable=0;points=[];autosize=1;strokeColor=none;fillColor=none;" parent="1" vertex="1">
          <mxGeometry x="200" y="570" width="200" height="30" as="geometry" />
        </mxCell>
        <mxCell id="1cOycNBSY7dRPkyLN_TB-51" value="" style="endArrow=open;endFill=1;endSize=12;html=1;rounded=0;strokeColor=#457B9D;fontColor=default;labelBackgroundColor=none;" parent="1" edge="1">
          <mxGeometry width="160" relative="1" as="geometry">
            <mxPoint x="540" y="570" as="sourcePoint" />
            <mxPoint x="700" y="570" as="targetPoint" />
          </mxGeometry>
        </mxCell>
        <mxCell id="1cOycNBSY7dRPkyLN_TB-52" value="Display()" style="text;html=1;align=center;verticalAlign=middle;resizable=0;points=[];autosize=1;strokeColor=none;fillColor=none;" parent="1" vertex="1">
          <mxGeometry x="560" y="540" width="70" height="30" as="geometry" />
        </mxCell>
        <mxCell id="1cOycNBSY7dRPkyLN_TB-58" value="Listing" style="shape=umlLifeline;perimeter=lifelinePerimeter;whiteSpace=wrap;html=1;container=1;dropTarget=0;collapsible=0;recursiveResize=0;outlineConnect=0;portConstraint=eastwest;newEdgeStyle={&quot;curved&quot;:0,&quot;rounded&quot;:0};strokeColor=#457B9D;fontColor=#1D3557;fillColor=#A8DADC;" parent="1" vertex="1">
          <mxGeometry x="740" y="780" width="120" height="560" as="geometry" />
        </mxCell>
        <mxCell id="1cOycNBSY7dRPkyLN_TB-61" value="" style="html=1;points=[[0,0,0,0,5],[0,1,0,0,-5],[1,0,0,0,5],[1,1,0,0,-5]];perimeter=orthogonalPerimeter;outlineConnect=0;targetShapes=umlLifeline;portConstraint=eastwest;newEdgeStyle={&quot;curved&quot;:0,&quot;rounded&quot;:0};labelBackgroundColor=none;fillColor=#A8DADC;strokeColor=#457B9D;fontColor=#1D3557;" parent="1cOycNBSY7dRPkyLN_TB-58" vertex="1">
          <mxGeometry x="52.5" y="40" width="15" height="20" as="geometry" />
        </mxCell>
        <mxCell id="1cOycNBSY7dRPkyLN_TB-62" value="Create" style="html=1;verticalAlign=bottom;endArrow=open;dashed=1;endSize=8;curved=0;rounded=0;strokeColor=#457B9D;fontColor=default;labelBackgroundColor=none;" parent="1" source="1cOycNBSY7dRPkyLN_TB-11" edge="1">
          <mxGeometry x="0.0101" relative="1" as="geometry">
            <mxPoint x="650" y="780" as="sourcePoint" />
            <mxPoint x="740" y="780" as="targetPoint" />
            <mxPoint as="offset" />
          </mxGeometry>
        </mxCell>
        <mxCell id="1cOycNBSY7dRPkyLN_TB-64" value="Create" style="html=1;verticalAlign=bottom;endArrow=open;dashed=1;endSize=8;curved=0;rounded=0;strokeColor=#457B9D;fontColor=default;labelBackgroundColor=none;" parent="1" source="1cOycNBSY7dRPkyLN_TB-11" edge="1">
          <mxGeometry x="0.0101" relative="1" as="geometry">
            <mxPoint x="800" y="880" as="sourcePoint" />
            <mxPoint x="890" y="880" as="targetPoint" />
            <mxPoint as="offset" />
          </mxGeometry>
        </mxCell>
        <mxCell id="1cOycNBSY7dRPkyLN_TB-65" value="Display()" style="text;html=1;align=center;verticalAlign=middle;resizable=0;points=[];autosize=1;strokeColor=none;fillColor=none;" parent="1" vertex="1">
          <mxGeometry x="710" y="940" width="70" height="30" as="geometry" />
        </mxCell>
        <mxCell id="1cOycNBSY7dRPkyLN_TB-66" value="" style="endArrow=open;endFill=1;endSize=12;html=1;rounded=0;strokeColor=#457B9D;fontColor=default;labelBackgroundColor=none;entryX=0.167;entryY=0;entryDx=0;entryDy=0;entryPerimeter=0;" parent="1" source="1cOycNBSY7dRPkyLN_TB-12" target="1cOycNBSY7dRPkyLN_TB-22" edge="1">
          <mxGeometry width="160" relative="1" as="geometry">
            <mxPoint x="550" y="970" as="sourcePoint" />
            <mxPoint x="953" y="970" as="targetPoint" />
          </mxGeometry>
        </mxCell>
        <mxCell id="1cOycNBSY7dRPkyLN_TB-67" value="" style="endArrow=open;endFill=1;endSize=12;html=1;rounded=0;labelBackgroundColor=none;fontColor=default;strokeColor=#457B9D;entryX=0;entryY=0;entryDx=0;entryDy=5;entryPerimeter=0;" parent="1" source="1cOycNBSY7dRPkyLN_TB-3" edge="1">
          <mxGeometry width="160" relative="1" as="geometry">
            <mxPoint x="279.99761904761925" y="1020" as="sourcePoint" />
            <mxPoint x="957.95" y="1020" as="targetPoint" />
            <Array as="points">
              <mxPoint x="880.45" y="1020" />
            </Array>
          </mxGeometry>
        </mxCell>
        <mxCell id="1cOycNBSY7dRPkyLN_TB-68" value="Confirm()" style="text;html=1;align=center;verticalAlign=middle;resizable=0;points=[];autosize=1;strokeColor=none;fillColor=none;" parent="1" vertex="1">
          <mxGeometry x="265" y="988" width="70" height="30" as="geometry" />
        </mxCell>
        <mxCell id="vjh0ZyolPzS9bqaiy3-8-2" value="" style="endArrow=open;endFill=1;endSize=12;html=1;rounded=0;labelBackgroundColor=none;fontColor=default;strokeColor=#457B9D;" parent="1" target="vjh0ZyolPzS9bqaiy3-8-3" edge="1">
          <mxGeometry width="160" relative="1" as="geometry">
            <mxPoint x="540.0035294117647" y="440" as="sourcePoint" />
            <mxPoint x="930.6800000000001" y="440" as="targetPoint" />
          </mxGeometry>
        </mxCell>
        <mxCell id="vjh0ZyolPzS9bqaiy3-8-4" value="QueryListingDetails()" style="text;html=1;align=center;verticalAlign=middle;resizable=0;points=[];autosize=1;strokeColor=none;fillColor=none;" parent="1" vertex="1">
          <mxGeometry x="860" y="408" width="140" height="30" as="geometry" />
        </mxCell>
        <mxCell id="vjh0ZyolPzS9bqaiy3-8-5" value="Return Listing Details" style="html=1;verticalAlign=bottom;endArrow=open;dashed=1;endSize=8;curved=0;rounded=0;strokeColor=#457B9D;fontColor=default;labelBackgroundColor=none;" parent="1" edge="1">
          <mxGeometry relative="1" as="geometry">
            <mxPoint x="1312.5" y="480" as="sourcePoint" />
            <mxPoint x="540" y="480" as="targetPoint" />
          </mxGeometry>
        </mxCell>
        <mxCell id="vjh0ZyolPzS9bqaiy3-8-11" value="" style="html=1;align=left;spacingLeft=2;endArrow=block;rounded=0;edgeStyle=orthogonalEdgeStyle;curved=0;rounded=0;strokeColor=#457B9D;fontColor=default;labelBackgroundColor=none;" parent="1" edge="1">
          <mxGeometry x="-0.2941" y="58" relative="1" as="geometry">
            <mxPoint x="710" y="610" as="sourcePoint" />
            <Array as="points">
              <mxPoint x="740" y="640" />
            </Array>
            <mxPoint x="-8" y="-30" as="offset" />
            <mxPoint x="715" y="640" as="targetPoint" />
          </mxGeometry>
        </mxCell>
        <mxCell id="vjh0ZyolPzS9bqaiy3-8-12" value="CheckListingDetails()" style="text;html=1;align=center;verticalAlign=middle;resizable=0;points=[];autosize=1;strokeColor=none;fillColor=none;" parent="1" vertex="1">
          <mxGeometry x="730" y="610" width="140" height="30" as="geometry" />
        </mxCell>
        <mxCell id="vjh0ZyolPzS9bqaiy3-8-14" value="" style="endArrow=open;endFill=1;endSize=12;html=1;rounded=0;labelBackgroundColor=none;fontColor=default;strokeColor=#457B9D;" parent="1" edge="1">
          <mxGeometry width="160" relative="1" as="geometry">
            <mxPoint x="541.0035294117647" y="700" as="sourcePoint" />
            <mxPoint x="1319" y="700" as="targetPoint" />
          </mxGeometry>
        </mxCell>
        <mxCell id="vjh0ZyolPzS9bqaiy3-8-15" value="ValidateListingDetails()" style="text;html=1;align=center;verticalAlign=middle;resizable=0;points=[];autosize=1;strokeColor=none;fillColor=none;" parent="1" vertex="1">
          <mxGeometry x="825" y="668" width="150" height="30" as="geometry" />
        </mxCell>
        <mxCell id="vjh0ZyolPzS9bqaiy3-8-16" value="Return Listing Details" style="html=1;verticalAlign=bottom;endArrow=open;dashed=1;endSize=8;curved=0;rounded=0;strokeColor=#457B9D;fontColor=default;labelBackgroundColor=none;" parent="1" edge="1">
          <mxGeometry relative="1" as="geometry">
            <mxPoint x="1316.25" y="740" as="sourcePoint" />
            <mxPoint x="543.75" y="740" as="targetPoint" />
          </mxGeometry>
        </mxCell>
        <mxCell id="vjh0ZyolPzS9bqaiy3-8-19" value="Info Screen" style="shape=umlLifeline;perimeter=lifelinePerimeter;whiteSpace=wrap;html=1;container=1;dropTarget=0;collapsible=0;recursiveResize=0;outlineConnect=0;portConstraint=eastwest;newEdgeStyle={&quot;curved&quot;:0,&quot;rounded&quot;:0};strokeColor=#457B9D;fontColor=#1D3557;fillColor=#A8DADC;" parent="1" vertex="1">
          <mxGeometry x="1010" y="1120" width="120" height="200" as="geometry" />
        </mxCell>
        <mxCell id="vjh0ZyolPzS9bqaiy3-8-20" value="" style="html=1;points=[[0,0,0,0,5],[0,1,0,0,-5],[1,0,0,0,5],[1,1,0,0,-5]];perimeter=orthogonalPerimeter;outlineConnect=0;targetShapes=umlLifeline;portConstraint=eastwest;newEdgeStyle={&quot;curved&quot;:0,&quot;rounded&quot;:0};labelBackgroundColor=none;fillColor=#A8DADC;strokeColor=#457B9D;fontColor=#1D3557;" parent="vjh0ZyolPzS9bqaiy3-8-19" vertex="1">
          <mxGeometry x="52.5" y="70" width="15" height="40" as="geometry" />
        </mxCell>
        <mxCell id="vjh0ZyolPzS9bqaiy3-8-23" value="Create" style="html=1;verticalAlign=bottom;endArrow=open;dashed=1;endSize=8;curved=0;rounded=0;strokeColor=#457B9D;fontColor=default;labelBackgroundColor=none;" parent="1" edge="1">
          <mxGeometry x="0.0101" relative="1" as="geometry">
            <mxPoint x="540" y="1120" as="sourcePoint" />
            <mxPoint x="1010" y="1120" as="targetPoint" />
            <mxPoint as="offset" />
          </mxGeometry>
        </mxCell>
        <mxCell id="vjh0ZyolPzS9bqaiy3-8-24" value="" style="endArrow=open;endFill=1;endSize=12;html=1;rounded=0;strokeColor=#457B9D;fontColor=default;labelBackgroundColor=none;" parent="1" edge="1">
          <mxGeometry width="160" relative="1" as="geometry">
            <mxPoint x="540" y="1200" as="sourcePoint" />
            <mxPoint x="1060" y="1200" as="targetPoint" />
          </mxGeometry>
        </mxCell>
        <mxCell id="vjh0ZyolPzS9bqaiy3-8-25" value="Dispaly()" style="text;html=1;align=center;verticalAlign=middle;resizable=0;points=[];autosize=1;strokeColor=none;fillColor=none;" parent="1" vertex="1">
          <mxGeometry x="710" y="1168" width="70" height="30" as="geometry" />
        </mxCell>
      </root>
    </mxGraphModel>
  </diagram>
</mxfile>
